# xmcd
#
# Track frame offsets:
#	150
#	14140
#	28400
#	39962
#	60842
#	76667
#	88842
#	102012
#	112672
#	125157
#	136985
#	150570
#	167187
#	184437
#	196617
#
# Disc length: 2783
#
# Revision: 1
# Processed by: cddbd v1.5.1PL0 Copyright (c) Steve Scherf et al.
# Submitted via: ExactAudioCopy v0.95a5
# Normalized: r0:TDELIM( - )
#
DISCID=bb0add0f
DTITLE=Various Artist - King Biscuit Blues: The Helena Blues Legacy
DYEAR=1900
DGENRE=
TTITLE0=Robert Lockwood, Jr. - Lockwood's Boogie
TTITLE1=James Cotton - Straighten Up Baby
TTITLE2=Robert Nighthawk - You Missed A Good Man
TTITLE3=Pinetop Perkins - Biscuit Blues
TTITLE4=Honeyboy Edwards - 61 Highway
TTITLE5=Houston Stackhouse - Big Road Blues
TTITLE6=Little Walter Jacobs - I Just Keep Loving Her
TTITLE7=Johnny Shines - Evening Sun
TTITLE8=Elmore James - Dust My Broom
TTITLE9=Earl Hooker - Earl's Boogie Woogie
TTITLE10=Roosevelt Sykes - We Gotta Move
TTITLE11=Big Walter Horton - Polly Put The Kettle On
TTITLE12=Sunnyland Slim - Roll and Tumble Blues
TTITLE13=Hacksaw Harney - Ragtime Blues
TTITLE14=Sonny Boy Williamson II - Too Close Together
EXTD=
EXTT0=
EXTT1=
EXTT2=
EXTT3=
EXTT4=
EXTT5=
EXTT6=
EXTT7=
EXTT8=
EXTT9=
EXTT10=
EXTT11=
EXTT12=
EXTT13=
EXTT14=
PLAYORDER=
